<svg width="64" height="64" xmlns="http://www.w3.org/2000/svg">

 <g>
  <title>background</title>
  <rect fill="none" id="canvas_background" height="402" width="582" y="-1" x="-1"/>
 </g>
 <g>
  <title>Layer 1</title>
  <circle stroke="null" fill="#ffffff" id="svg_1" r="32" cy="32" cx="32" class="st15"/>
  <path fill="#131426" id="svg_3" d="m20,50c0,-6.6 5.4,-12 12,-12s12,5.4 12,12l-24,0z" class="st12"/>
  <path fill="#131426" id="svg_5" d="m15.2,21.31073c1.1,0.4 2,1 2.9,1.6c0.9,0.6 1.7,1.3 2.4,2.1c0.7,0.8 1.4,1.6 2,2.5c0.6,0.9 1.2,1.8 1.6,2.9c0.1,0.4 -0.1,0.9 -0.5,1c-0.2,0.1 -0.4,0.1 -0.5,0c-1.1,-0.4 -2,-1 -2.9,-1.6c-0.9,-0.6 -1.7,-1.3 -2.5,-2c-0.8,-0.7 -1.5,-1.5 -2.1,-2.4c-0.6,-0.9 -1.2,-1.8 -1.6,-2.9c-0.2,-0.5 0.1,-1.1 0.6,-1.3c0.1,0 0.4,0 0.6,0.1z" class="st12"/>
  <path fill="#131426" id="svg_7" d="m13.9,30.2c0.4,-1.1 1,-2 1.6,-2.9c0.6,-0.9 1.3,-1.7 2.1,-2.4c0.8,-0.7 1.6,-1.4 2.5,-2c0.9,-0.6 1.8,-1.2 2.9,-1.6c0.4,-0.1 0.9,0.1 1,0.5c0.1,0.2 0.1,0.4 0,0.5c-0.4,1.1 -1,2 -1.6,2.9c-0.6,0.9 -1.3,1.7 -2,2.5c-0.7,0.8 -1.5,1.5 -2.4,2.1c-0.9,0.6 -1.8,1.2 -2.9,1.6c-0.5,0.2 -1.1,-0.1 -1.3,-0.6c0,-0.1 0,-0.4 0.1,-0.6z" class="st12"/>
  <path fill="#131426" id="svg_9" d="m41.2,21.4c1.1,0.4 2,1 2.9,1.6c0.9,0.6 1.7,1.3 2.4,2.1c0.7,0.8 1.4,1.6 2,2.5c0.6,0.9 1.2,1.8 1.6,2.9c0.1,0.4 -0.1,0.9 -0.5,1c-0.2,0.1 -0.4,0.1 -0.5,0c-1.1,-0.4 -2,-1 -2.9,-1.6c-0.9,-0.6 -1.7,-1.3 -2.5,-2c-0.8,-0.7 -1.5,-1.5 -2.1,-2.4c-0.6,-0.9 -1.2,-1.8 -1.6,-2.9c-0.2,-0.5 0.1,-1.1 0.6,-1.3c0.1,0 0.4,0 0.6,0.1z" class="st12"/>
  <path fill="#131426" id="svg_11" d="m39.9,30.2c0.4,-1.1 1,-2 1.6,-2.9c0.6,-0.9 1.3,-1.7 2.1,-2.4c0.8,-0.7 1.6,-1.4 2.5,-2c0.9,-0.6 1.8,-1.2 2.9,-1.6c0.4,-0.1 0.9,0.1 1,0.5c0.1,0.2 0.1,0.4 0,0.5c-0.4,1.1 -1,2 -1.6,2.9c-0.6,0.9 -1.3,1.7 -2,2.5c-0.7,0.8 -1.5,1.5 -2.4,2.1c-0.9,0.6 -1.8,1.2 -2.9,1.6c-0.5,0.2 -1.1,-0.1 -1.3,-0.6c0,-0.1 0,-0.4 0.1,-0.6z" class="st12"/>
  <path fill="#dc2863" id="svg_12" d="m34.5,61.1l0,0c-3,0 -5.5,-2.5 -5.5,-5.5l0,-6.6c0,-0.7 0.5,-1.4 1.3,-1.5c2.8,-0.6 5.6,-0.6 8.5,0c0.7,0.2 1.3,0.8 1.3,1.5l0,6.6c-0.1,3.1 -2.6,5.5 -5.6,5.5z" class="st13"/>
 </g>
</svg>